<?xml version="1.0" encoding="UTF-8" standalone="no"?>
<!-- Created with Inkscape (http://www.inkscape.org/) -->

<svg
   width="115.08mm"
   height="115mm"
   version="1.1"
   viewBox="0 0 115.08 115"
   id="svg36"
   sodipodi:docname="favicon.svg"
   inkscape:version="1.2.1 (8a69933317, 2022-10-28, custom)"
   xmlns:inkscape="http://www.inkscape.org/namespaces/inkscape"
   xmlns:sodipodi="http://sodipodi.sourceforge.net/DTD/sodipodi-0.dtd"
   xmlns="http://www.w3.org/2000/svg"
   xmlns:svg="http://www.w3.org/2000/svg">
  <defs
     id="defs40" />
  <sodipodi:namedview
     id="namedview38"
     pagecolor="#ffffff"
     bordercolor="#666666"
     borderopacity="1.0"
     inkscape:showpageshadow="2"
     inkscape:pageopacity="0.0"
     inkscape:pagecheckerboard="0"
     inkscape:deskcolor="#d1d1d1"
     inkscape:document-units="mm"
     showgrid="false"
     inkscape:zoom="1.7123726"
     inkscape:cx="100.73742"
     inkscape:cy="171.69161"
     inkscape:window-width="1916"
     inkscape:window-height="1035"
     inkscape:window-x="0"
     inkscape:window-y="43"
     inkscape:window-maximized="1"
     inkscape:current-layer="g34" />
  <g
     transform="translate(-13.271)"
     id="g34">
    <path
       d="m 92.673838,93.146328 v 0.95058 l -2.281408,1.425848 0.855517,-2.18626 z m 10.646502,-0.475289 -2.09129,0.760455 -2.091279,0.190146 2.946799,-0.665415 z m 1.1407,0.285165 -1.80609,0.38025 v -0.190146 l 6.46384,-2.376558 z m 11.3119,-8.365092 -4.7529,3.992357 h 2.18626 l 1.71103,-2.18626 1.71104,0.09495 0.0951,-0.665392 0.85552,0.950579 3.23203,-1.235766 -11.02666,5.228209 1.1407,-0.665392 -13.783384,3.517045 1.711034,0.380207 -4.372735,0.570373 2.18626,-0.95058 -0.950579,-0.665414 -0.95058,0.380249 0.285165,0.665393 -1.615994,0.380249 -0.475289,-1.235745 1.520931,-2.18626 2.186261,-0.190146 v -0.760454 l 0.285165,0.285165 0.190103,-1.235745 0.855517,1.045642 0.380228,-1.330807 1.711037,0.09495 0.47529,-0.95058 0.95058,0.855539 -0.47529,-0.855539 2.37634,0.665393 1.33081,-0.95058 6.27376,-0.380206 3.51705,-2.851653 z m 3.04195,-2.186261 -0.28517,-0.190146 1.14071,-0.475289 -0.66542,0.665392 z m -86.217566,-31.083168 -0.760455,0.950558 -0.570352,-0.475268 0.09506,-1.045642 z m 33.460799,-15.114168 -0.665414,0.570352 0.855517,-1.235746 v 0.570352 z m 1.90116,-5.038129 0.285165,0.190154 -1.140704,0.285166 0.190103,-0.285166 z m 1.996221,-1.045642 -0.570352,0.47529 -0.760455,0.760476 -0.190107,-0.760476 z M 82.978347,19.477243 h 18.060973 v 0.95058 l -0.0951,5.703521 0.95058,2.851653 -0.47529,3.517045 -1.33081,3.04195 0.95058,4.65775 -0.66539,2.946801 0.1901,0.665394 1.33081,-0.855517 0.47529,1.235745 0.28516,13.498153 -2.946799,11.121811 -0.570353,13.593303 0.950582,1.140704 -3.136885,1.996201 1.045642,1.711056 -2.18626,2.091284 0.190103,0.760454 -1.520932,0.190146 -1.045642,1.711056 1.615994,-5.22821 -0.760455,-4.942979 -0.665414,0.855517 0.95058,4.562817 -10.076042,-6.083684 -0.570352,-1.140683 -3.136883,-1.235745 -0.855517,-1.806118 -0.09506,-3.612195 -2.281409,-0.950558 -1.045641,-2.091284 -55.703564,-2.18626 0.285186,-4.467668 7.98493,-4.752898 1.520931,-2.281409 1.996222,-1.045642 -0.47529,-3.326964 0.665393,-1.235745 -2.18626,-0.95058 0.09506,-3.041734 8.745256,-1.520932 7.699699,1.140683 1.996222,1.711034 2.756719,-0.665392 4.848047,1.045641 0.380227,-0.950579 2.75672,-0.47529 3.612194,-3.136883 1.901159,0.190146 1.045642,-1.140683 0.09506,-1.235744 -0.285166,0.285186 -0.950579,-3.517046 0.760455,-0.855538 0.190103,0.855538 1.996221,-2.566638 -1.806097,0.380228 1.045642,-1.235767 -1.045642,-0.475289 -1.140704,0.760476 -0.665414,-1.615972 6.178832,-4.087506 1.901159,-3.517045 5.418291,-4.562817 z"
       fill="#ccc8c6"
       stroke-width="0.264581"
       id="path26"
       style="fill:#1b0182;fill-opacity:1" />
  </g>
</svg>
