<?xml version="1.0" encoding="UTF-8"?>
<!-- Created with Inkscape (http://www.inkscape.org/) -->
<svg width="115.08mm" height="36.465mm" version="1.1" viewBox="0 0 115.08 36.465" xmlns="http://www.w3.org/2000/svg">
 <g transform="translate(-13.271)">
  <path d="m47.789 35.358v0.44258l-1.0622 0.66386 0.39832-1.0179zm4.9569-0.22129-0.97368 0.35406-0.97368 0.08853 1.372-0.30981zm0.5311 0.13277-0.8409 0.17704v-0.08853l3.0095-1.1065zm5.2667-3.8947-2.2129 1.8588h1.0179l0.79664-1.0179 0.79664 0.04421 0.04426-0.3098 0.39832 0.44258 1.5048-0.57536-5.1339 2.4342 0.5311-0.3098-6.4174 1.6375 0.79664 0.17702-2.0359 0.26556 1.0179-0.44258-0.44258-0.30981-0.44258 0.17704 0.13277 0.3098-0.75239 0.17704-0.22129-0.57535 0.70813-1.0179 1.0179-0.08853v-0.35406l0.13277 0.13277 0.08851-0.57535 0.39832 0.48684 0.17703-0.61961 0.79664 0.04421 0.22129-0.44258 0.44258 0.39833-0.22129-0.39833 1.1064 0.3098 0.61961-0.44258 2.921-0.17702 1.6375-1.3277zm1.4163-1.0179-0.13277-0.08853 0.5311-0.22129-0.30981 0.3098zm-40.142-14.472-0.35406 0.44257-0.26555-0.22128 0.04426-0.48684zm15.579-7.037-0.30981 0.26555 0.39832-0.57535v0.26555zm0.88516-2.3457 0.13277 0.088534-0.5311 0.13277 0.08851-0.13277zm0.92942-0.48684-0.26555 0.22129-0.35406 0.35407-0.08851-0.35407zm6.0633-4.9569h8.409v0.44258l-0.04426 2.6555 0.44258 1.3277-0.22129 1.6375-0.61961 1.4163 0.44258 2.1686-0.3098 1.372 0.08851 0.3098 0.61961-0.39832 0.22129 0.57535 0.13277 6.2846-1.372 5.1782-0.26555 6.3289 0.44258 0.5311-1.4605 0.92941 0.48684 0.79665-1.0179 0.97368 0.08851 0.35406-0.70813 0.08853-0.48684 0.79665 0.75239-2.4342-0.35406-2.3014-0.30981 0.39832 0.44258 2.1244-4.6913-2.8325-0.26555-0.53109-1.4605-0.57535-0.39832-0.84091-0.04426-1.6818-1.0622-0.44257-0.48684-0.97368-25.935-1.0179 0.13278-2.0801 3.7177-2.2129 0.70813-1.0622 0.92942-0.48684-0.22129-1.549 0.3098-0.57535-1.0179-0.44258 0.04426-1.4162 4.0717-0.70813 3.5849 0.53109 0.92942 0.79664 1.2835-0.3098 2.2572 0.48684 0.17703-0.44258 1.2835-0.22129 1.6818-1.4605 0.88516 0.08853 0.48684-0.53109 0.04426-0.57535-0.13277 0.13278-0.44258-1.6375 0.35406-0.39833 0.08851 0.39833 0.92942-1.195-0.8409 0.17703 0.48684-0.57536-0.48684-0.22129-0.5311 0.35407-0.30981-0.75238 2.8768-1.9031 0.88516-1.6375 2.5227-2.1244z" fill="#403f50" stroke-width=".26458"/>
  <g fill="#403f50" stroke-width=".26458" aria-label="New York StateForensic League">
   <path d="m59.308 6.9641-0.14764-0.55774h-0.09842v6.8405h-1.624v-12.057h1.5748l1.7224 6.2827 0.14764 0.55774h0.09842v-6.8405h1.624v12.057h-1.5748z"/>
   <path d="m68.068 10.032v1.0335c-0.04921 0.86941-0.31168 1.4764-0.90222 1.9521-0.29527 0.24606-0.70537 0.36089-1.2467 0.36089-1.0663 0-1.6076-0.59054-1.8701-1.1811-0.14764-0.34448-0.24606-0.73818-0.26246-1.1811v-4.5111c0.04921-0.86941 0.32808-1.5092 0.91862-2.0013 0.27887-0.24606 0.68897-0.36089 1.2303-0.36089 1.0663 0 1.6076 0.59054 1.8701 1.1647 0.14764 0.34448 0.24606 0.72178 0.26246 1.1483v2.6082h-2.7395v1.9521c0.0164 0.34448 0.11483 0.59054 0.26246 0.77099 0.08202 0.08202 0.19685 0.13123 0.34448 0.13123 0.31168 0 0.45931-0.19685 0.52493-0.44291 0.04921-0.13123 0.06562-0.27887 0.06562-0.45931v-0.98424zm-2.7395-2.2638h1.1975v-1.2631c0-0.34448-0.06562-0.59054-0.22966-0.78739-0.08202-0.08202-0.21325-0.13123-0.36089-0.13123-0.31168 0-0.44291 0.21325-0.52493 0.45931-0.04921 0.13123-0.06562 0.27887-0.08202 0.45931z"/>
   <path d="m72.841 13.247-0.63976-4.2814-0.08202-0.50852h-0.06562l-0.08202 0.50852-0.63976 4.2814h-1.3779l-1.3287-8.973h1.5092l0.52493 4.6915 0.06562 0.50852h0.09842l0.08202-0.50852 0.68897-4.6915h0.98424l0.68897 4.6915 0.08202 0.50852h0.09842l0.06562-0.50852 0.52493-4.6915h1.5092l-1.3287 8.973z"/>
   <path d="m80.978 5.0448 0.04921 0.11483h0.03281l0.049212-0.11483 0.88582-3.8549h1.7388l-1.8044 6.9225v5.1345h-1.7716v-5.1345l-1.8044-6.9225h1.7388z"/>
   <path d="m87.949 11.065c-0.04921 0.86941-0.31168 1.4764-0.88582 1.9521-0.29527 0.24606-0.70537 0.36089-1.2467 0.36089-1.0663 0-1.5912-0.59054-1.8537-1.1811-0.14764-0.34448-0.24606-0.73818-0.26246-1.1811v-4.5111c0.049212-0.86941 0.31168-1.5092 0.88582-2.0013 0.27887-0.24606 0.68897-0.36089 1.2303-0.36089 1.0663 0 1.6076 0.59054 1.8701 1.1647 0.14764 0.34448 0.24606 0.72178 0.26246 1.1483zm-1.5584-4.5603c0.016404-0.34448-0.049212-0.59054-0.21325-0.78739-0.08202-0.08202-0.21325-0.13123-0.36089-0.13123-0.31168 0-0.44291 0.21325-0.50852 0.45931-0.04921 0.13123-0.06562 0.27887-0.04921 0.45931v4.5111c-0.0164 0.34448 0.06562 0.59054 0.21325 0.77099 0.08202 0.08202 0.19685 0.13123 0.34448 0.13123 0.31168 0 0.45931-0.19685 0.52493-0.44291 0.04921-0.13123 0.06562-0.27887 0.04921-0.45931z"/>
   <path d="m92.395 5.9798c-0.14764-0.049212-0.31168-0.065616-0.45931-0.065616-0.26246 0-0.57414 0.032808-0.8366 0.27887-0.31168 0.26246-0.36089 0.54133-0.36089 0.8202v6.2335h-1.6568v-8.973h1.6568v1.0006c0.0164-0.11483 0.13123-0.3937 0.3937-0.65616 0.26246-0.24606 0.65616-0.47572 1.2631-0.47572z"/>
   <path d="m94.773 1.1899v5.725h0.08202l0.09842-0.29527 0.8038-2.3458h1.4928l-1.1975 2.9199 1.5092 6.0531h-1.5912l-0.8202-3.6253-0.03281-0.13123h-0.08202l-0.04921 0.13123-0.21325 0.52493v3.1004h-1.6568v-12.057z"/>
   <path d="m103.71 4.4214c0-0.3937-0.0164-0.8366-0.13123-1.1811-0.11483-0.32808-0.29527-0.55774-0.57414-0.55774-0.45931 0.016404-0.60695 0.49212-0.60695 1.1975 0 0.4101 0.18045 0.8366 0.44291 1.2959 0.26247 0.45931 0.60695 0.93503 0.95143 1.4436 0.4101 0.60695 0.8202 1.2303 1.1319 1.8372 0.31168 0.60695 0.52493 1.2303 0.52493 1.8865 0 0.8038-0.13123 1.5584-0.50853 2.1161-0.37729 0.55774-0.98424 0.91862-1.9521 0.91862-1.1319 0-1.7716-0.4265-2.1325-1.0827s-0.44291-1.5256-0.44291-2.4278l1.7388-0.16404c0 0.50852 0.0164 1.017 0.14764 1.3943 0.11483 0.3937 0.31168 0.65616 0.68897 0.65616 0.52493 0 0.72177-0.55774 0.72177-1.3287 0-0.3937-0.19684-0.85301-0.45931-1.3287-0.14763-0.22966-0.29527-0.47572-0.45931-0.72178-0.34448-0.49212-0.72178-1.0499-1.1155-1.6568-0.3937-0.60695-0.68897-1.2303-0.86941-1.8701-0.0984-0.31168-0.14764-0.63976-0.14764-0.96784 0-0.65616 0.14764-1.3615 0.52493-1.9029 0.37729-0.52493 0.95143-0.90222 1.788-0.91862 1.0663-0.016404 1.6896 0.4265 2.0341 1.0663 0.34448 0.65616 0.44291 1.46 0.44291 2.1325z"/>
   <path d="m108.41 2.0593v2.2145h1.1319v1.4928h-1.1319v4.4619c0 0.27887 0 0.63976 0.0656 0.93503s0.19685 0.54133 0.45931 0.54133c0.13123 0 0.29527-0.0164 0.4101-0.03281 0.0656-0.0164 0.13123-0.0164 0.19685-0.03281v1.624c-0.082 0.0164-0.16404 0.04921-0.24606 0.06562-0.16404 0.03281-0.37729 0.04921-0.63976 0.04921-0.96783 0-1.4271-0.49212-1.6568-1.1155s-0.24606-1.3779-0.24606-1.9029v-4.5931h-0.8366v-1.4928h0.8366v-2.2145z"/>
   <path d="m112.9 6.4063c0-0.14764 0-0.37729-0.0492-0.54133-0.0656-0.16404-0.19685-0.27887-0.4101-0.27887-0.27887 0-0.3937 0.21325-0.44291 0.47572-0.0164 0.13123-0.0328 0.27887-0.0328 0.4265v0.4265h-1.6568v-0.37729c0-0.65616 0.24606-1.2467 0.63975-1.6896 0.3937-0.44291 0.95144-0.70537 1.5912-0.70537 0.54133 0 1.0334 0.21325 1.4108 0.57414 0.37729 0.36089 0.60694 0.86941 0.60694 1.46v5.5117c0 0.8038 0.0492 1.1647 0.11483 1.5584h-1.624c-0.14764-0.18044-0.14764-0.60695-0.14764-0.72178h-0.11483c-0.082 0.14764-0.22965 0.36089-0.45931 0.54133s-0.54133 0.31168-0.86941 0.31168c-0.21325 0-0.55774-0.08202-0.8202-0.4101-0.27887-0.31168-0.50853-0.86941-0.50853-1.8044 0-1.0006 0.29528-1.7224 0.68897-2.2145 0.3937-0.49212 0.88582-0.8038 1.2959-1.017s0.72177-0.36089 0.78739-0.54133zm0 2.5098c-0.8038 0.34448-1.1483 1.1483-1.1483 2.0013 0 0.11483 0.0164 0.31168 0.082 0.49212 0.0656 0.19685 0.18044 0.34448 0.37729 0.34448 0.37729 0 0.68897-0.22966 0.68897-0.54133z"/>
   <path d="m117.57 2.0593v2.2145h1.1319v1.4928h-1.1319v4.4619c0 0.27887 0 0.63976 0.0656 0.93503s0.19685 0.54133 0.45932 0.54133c0.13123 0 0.29527-0.0164 0.4101-0.03281 0.0656-0.0164 0.13123-0.0164 0.19684-0.03281v1.624c-0.082 0.0164-0.16404 0.04921-0.24606 0.06562-0.16404 0.03281-0.37729 0.04921-0.63975 0.04921-0.96784 0-1.4272-0.49212-1.6568-1.1155-0.22965-0.62335-0.24606-1.3779-0.24606-1.9029v-4.5931h-0.8366v-1.4928h0.8366v-2.2145z"/>
   <path d="m123.74 10.032v1.0335c-0.0492 0.86941-0.31167 1.4764-0.90222 1.9521-0.29527 0.24606-0.70537 0.36089-1.2467 0.36089-1.0663 0-1.6076-0.59054-1.8701-1.1811-0.14763-0.34448-0.24606-0.73818-0.26246-1.1811v-4.5111c0.0492-0.86941 0.32808-1.5092 0.91862-2.0013 0.27887-0.24606 0.68897-0.36089 1.2303-0.36089 1.0663 0 1.6076 0.59054 1.8701 1.1647 0.14764 0.34448 0.24606 0.72178 0.26246 1.1483v2.6082h-2.7395v1.9521c0.0164 0.34448 0.11482 0.59054 0.26246 0.77099 0.082 0.08202 0.19685 0.13123 0.34448 0.13123 0.31168 0 0.45932-0.19685 0.52493-0.44291 0.0492-0.13123 0.0656-0.27887 0.0656-0.45931v-0.98424zm-2.7395-2.2638h1.1975v-1.2631c0-0.34448-0.0656-0.59054-0.22966-0.78739-0.082-0.08202-0.21325-0.13123-0.36089-0.13123-0.31167 0-0.4429 0.21325-0.52492 0.45931-0.0492 0.13123-0.0656 0.27887-0.082 0.45931z"/>
   <path d="m61.654 18.519h-2.4442v3.166h1.6404v1.8208h-1.6404v5.2493h-1.7716v-12.057h4.2158z"/>
   <path d="m66.313 26.574c-0.04921 0.86941-0.31168 1.4764-0.88582 1.9521-0.29527 0.24606-0.70537 0.36089-1.2467 0.36089-1.0663 0-1.5912-0.59054-1.8537-1.1811-0.14764-0.34448-0.24606-0.73818-0.26246-1.1811v-4.5111c0.04921-0.86941 0.31168-1.5092 0.88582-2.0013 0.27887-0.24606 0.68897-0.36089 1.2303-0.36089 1.0663 0 1.6076 0.59054 1.8701 1.1647 0.14764 0.34448 0.24606 0.72178 0.26246 1.1483zm-1.5584-4.5603c0.0164-0.34448-0.04921-0.59054-0.21325-0.78739-0.08202-0.08202-0.21325-0.13123-0.36089-0.13123-0.31168 0-0.44291 0.21325-0.50852 0.45931-0.04921 0.13123-0.06562 0.27887-0.04921 0.45931v4.5111c-0.0164 0.34448 0.06562 0.59054 0.21325 0.77099 0.08202 0.08202 0.19685 0.13123 0.34448 0.13123 0.31168 0 0.45931-0.19685 0.52493-0.44291 0.04921-0.13123 0.06562-0.27887 0.04921-0.45931z"/>
   <path d="m70.758 21.488c-0.14764-0.04921-0.31168-0.06562-0.45931-0.06562-0.26246 0-0.57414 0.03281-0.8366 0.27887-0.31168 0.26246-0.36089 0.54133-0.36089 0.8202v6.2335h-1.6568v-8.973h1.6568v1.0006c0.0164-0.11483 0.13123-0.3937 0.3937-0.65616 0.26246-0.24606 0.65616-0.47572 1.2631-0.47572z"/>
   <path d="m75.564 25.54v1.0335c-0.04921 0.86941-0.31168 1.4764-0.90222 1.9521-0.29527 0.24606-0.70537 0.36089-1.2467 0.36089-1.0663 0-1.6076-0.59054-1.8701-1.1811-0.14764-0.34448-0.24606-0.73818-0.26246-1.1811v-4.5111c0.04921-0.86941 0.32808-1.5092 0.91862-2.0013 0.27887-0.24606 0.68897-0.36089 1.2303-0.36089 1.0663 0 1.6076 0.59054 1.8701 1.1647 0.14764 0.34448 0.24606 0.72178 0.26246 1.1483v2.6082h-2.7395v1.9521c0.0164 0.34448 0.11483 0.59054 0.26246 0.77099 0.08202 0.08202 0.19685 0.13123 0.34448 0.13123 0.31168 0 0.45931-0.19685 0.52493-0.44291 0.04921-0.13123 0.06562-0.27887 0.06562-0.45931v-0.98424zm-2.7395-2.2638h1.1975v-1.2631c0-0.34448-0.06562-0.59054-0.22966-0.78739-0.08202-0.08202-0.21325-0.13123-0.36089-0.13123-0.31168 0-0.44291 0.21325-0.52493 0.45931-0.04921 0.13123-0.06562 0.27887-0.08202 0.45931z"/>
   <path d="m78.32 28.755h-1.6568v-8.973h1.6568v0.75458c0.03281-0.0164 0.09842-0.08202 0.19685-0.18044 0.18044-0.18044 0.4265-0.4265 0.72178-0.59054 0.14764-0.08202 0.27887-0.11483 0.4265-0.11483 0.44291 0 0.75458 0.26246 0.95143 0.59054 0.19685 0.34448 0.29527 0.78739 0.29527 1.1647v7.349h-1.6568v-7.1029c0-0.34448-0.19685-0.3937-0.3937-0.3937-0.18044 0-0.27887 0.09842-0.3937 0.21325-0.04921 0.06562-0.09842 0.13123-0.14764 0.21325z"/>
   <path d="m84.619 22.079c0-0.21325 0-0.47572-0.06562-0.68897-0.08202-0.19685-0.21325-0.36089-0.47572-0.36089-0.21325 0-0.34448 0.16404-0.4101 0.36089-0.08202 0.19685-0.09842 0.47572-0.09842 0.68897 0 0.27887 0.14764 0.57414 0.36089 0.8366 0.19685 0.26246 0.45931 0.52493 0.72178 0.77099 0.34448 0.34448 0.75458 0.73818 1.0335 1.1811 0.27887 0.45931 0.49212 0.96784 0.49212 1.5584 0 0.57414-0.13123 1.1811-0.45931 1.6404-0.34448 0.47572-0.86941 0.8202-1.6568 0.8202-1.0006 0-1.5912-0.45931-1.9193-1.017-0.32808-0.55774-0.3937-1.2467-0.3937-1.7224h1.542c0 0.24606 0.0164 0.59054 0.13123 0.85301 0.11483 0.27887 0.29527 0.50852 0.63976 0.50852 0.47572 0 0.57414-0.55774 0.57414-1.0827 0-0.54133-0.52493-1.0827-1.0335-1.5912-0.3937-0.37729-0.77099-0.72178-1.0663-1.1647s-0.50852-0.93503-0.50852-1.5912c0-0.52493 0.09842-1.1319 0.4101-1.6076 0.31168-0.45931 0.8202-0.8038 1.6076-0.8202 0.96784-0.0164 1.5092 0.34448 1.788 0.8202s0.32808 1.0991 0.32808 1.6076z"/>
   <path d="m87.162 16.699h1.6568v1.6568h-1.6568zm0 12.057v-8.973h1.6568v8.973z"/>
   <path d="m91.624 26.689c0 0.32808 0.0164 0.72178 0.45931 0.72178 0.37729 0 0.47572-0.18044 0.47572-0.72178v-1.2467h1.6568v0.86941c0 1.0006-0.18044 1.6404-0.54133 2.0341s-0.88582 0.54133-1.5912 0.54133c-0.59054 0-1.1319-0.16404-1.5092-0.57414s-0.60695-1.0827-0.60695-2.0833v-3.9206c0-1.0006 0.22966-1.6732 0.60695-2.0833s0.91862-0.57414 1.5092-0.57414c0.70537 0 1.2303 0.14764 1.5912 0.54133s0.54133 1.0335 0.54133 2.0341v0.70537h-1.6568v-1.0827c0-0.54133-0.09842-0.72178-0.47572-0.72178-0.44291 0-0.45931 0.3937-0.45931 0.72178z"/>
   <path d="m97.792 16.699h1.7716v10.417h2.3458v1.6404h-4.1174z"/>
   <path d="m106.78 25.54v1.0335c-0.0492 0.86941-0.31167 1.4764-0.90222 1.9521-0.29527 0.24606-0.70537 0.36089-1.2467 0.36089-1.0663 0-1.6076-0.59054-1.8701-1.1811-0.14763-0.34448-0.24606-0.73818-0.26246-1.1811v-4.5111c0.0492-0.86941 0.32808-1.5092 0.91862-2.0013 0.27887-0.24606 0.68897-0.36089 1.2303-0.36089 1.0663 0 1.6076 0.59054 1.8701 1.1647 0.14763 0.34448 0.24606 0.72178 0.26246 1.1483v2.6082h-2.7395v1.9521c0.0164 0.34448 0.11483 0.59054 0.26247 0.77099 0.082 0.08202 0.19685 0.13123 0.34448 0.13123 0.31168 0 0.45931-0.19685 0.52493-0.44291 0.0492-0.13123 0.0656-0.27887 0.0656-0.45931v-0.98424zm-2.7395-2.2638h1.1975v-1.2631c0-0.34448-0.0656-0.59054-0.22966-0.78739-0.082-0.08202-0.21325-0.13123-0.36089-0.13123-0.31167 0-0.44291 0.21325-0.52493 0.45931-0.0492 0.13123-0.0656 0.27887-0.082 0.45931z"/>
   <path d="m110.34 21.915c0-0.14764 0-0.37729-0.0492-0.54133-0.0656-0.16404-0.19685-0.27887-0.4101-0.27887-0.27887 0-0.3937 0.21325-0.44291 0.47572-0.0164 0.13123-0.0328 0.27887-0.0328 0.4265v0.4265h-1.6568v-0.37729c0-0.65616 0.24606-1.2467 0.63975-1.6896 0.3937-0.44291 0.95144-0.70537 1.5912-0.70537 0.54133 0 1.0334 0.21325 1.4108 0.57414 0.37729 0.36089 0.60694 0.86941 0.60694 1.46v5.5117c0 0.8038 0.0492 1.1647 0.11483 1.5584h-1.624c-0.14764-0.18044-0.14764-0.60695-0.14764-0.72178h-0.11483c-0.082 0.14764-0.22965 0.36089-0.45931 0.54133s-0.54133 0.31168-0.86941 0.31168c-0.21325 0-0.55774-0.08202-0.8202-0.4101-0.27887-0.31168-0.50853-0.86941-0.50853-1.8044 0-1.0006 0.29528-1.7224 0.68897-2.2145 0.3937-0.49212 0.88582-0.8038 1.2959-1.017s0.72177-0.36089 0.78739-0.54133zm0 2.5098c-0.8038 0.34448-1.1483 1.1483-1.1483 2.0013 0 0.11483 0.0164 0.31168 0.082 0.49212 0.0656 0.19685 0.18044 0.34448 0.37729 0.34448 0.37729 0 0.68897-0.22966 0.68897-0.54133z"/>
   <path d="m117.18 24.425c-0.0492 0.8366-0.34449 1.4271-0.91863 1.8701-0.29527 0.22966-0.70537 0.34448-1.2139 0.34448h-0.14764c-0.0492 0-0.11483 0-0.16404-0.0164-0.14763 0.13123-0.22965 0.26246-0.22965 0.4101 0 0.19685 0.16404 0.31168 0.4101 0.37729 0.24606 0.08202 0.54133 0.13123 0.853 0.18044 0.52493 0.06562 1.0827 0.19685 1.542 0.50852 0.44291 0.31168 0.75458 0.78739 0.75458 1.5748 0 0.86941-0.37729 1.46-0.90222 1.8044-0.54133 0.34448-1.2631 0.49212-1.9357 0.49212-0.78739-0.0164-1.46-0.13123-1.9193-0.3937-0.47571-0.26246-0.73818-0.68897-0.73818-1.3451 0-0.31168 0.16404-0.57414 0.4101-0.8038s0.57414-0.4101 0.88582-0.55774c-0.54133-0.14764-1.0006-0.49212-1.0006-1.1975 0-0.26246 0.14763-0.52493 0.34448-0.77099s0.44291-0.44291 0.68897-0.57414c-0.47572-0.31168-0.70537-0.8038-0.8202-1.2139-0.0656-0.24606-0.11483-0.49212-0.13123-0.73818v-2.4442c0.0656-0.8366 0.32808-1.4436 0.90222-1.9193 0.27886-0.24606 0.68896-0.36089 1.1975-0.36089 0.8366 0 1.3451 0.37729 1.6568 0.8202 0.11483-0.11483 0.31168-0.31168 0.57414-0.49212 0.24606-0.18044 0.52493-0.32808 0.78739-0.32808v1.4764c-0.4429 0-0.77098 0.08202-0.96783 0.19685 0.0164 0.08202 0.0328 0.16404 0.0492 0.21325 0 0.06562 0 0.13123 0.0164 0.18044 0.0164 0.04921 0.0164 0.11483 0.0164 0.16404zm-1.624-2.4278c0-0.31168-0.0656-0.50852-0.19685-0.68897-0.0656-0.08202-0.16404-0.13123-0.31167-0.13123-0.26247 0-0.3937 0.21325-0.44291 0.4101-0.0328 0.11483-0.0492 0.26246-0.0328 0.4101v2.4606c-0.0164 0.31168 0.0328 0.50852 0.18045 0.67256 0.0656 0.08202 0.16404 0.13123 0.29527 0.13123 0.27887 0 0.39369-0.19685 0.45931-0.3937 0.0328-0.11483 0.0492-0.26246 0.0492-0.4101zm-0.77099 7.1685c-0.34448 0.19685-0.60694 0.44291-0.60694 0.78739s0.31167 0.62335 1.0827 0.62335c0.27887 0 0.59054-0.04921 0.8366-0.14764 0.24606-0.09842 0.42651-0.24606 0.42651-0.45931 0-0.14764-0.0164-0.26246-0.13123-0.37729-0.13124-0.11483-0.34449-0.19685-0.75459-0.26246z"/>
   <path d="m121.3 19.782h1.6568v8.973h-1.6568v-0.75458c-0.0328 0.0164-0.0984 0.08202-0.18045 0.16404-0.19684 0.19685-0.4265 0.4265-0.72177 0.59054-0.14764 0.08202-0.29527 0.13123-0.44291 0.13123-0.44291 0-0.75458-0.26246-0.95143-0.60695-0.19685-0.32808-0.29527-0.77099-0.29527-1.1483v-7.349h1.6568v7.1029c0 0.34448 0.19685 0.3937 0.3937 0.3937 0.18044 0 0.27886-0.09842 0.39369-0.21325 0.0492-0.04921 0.0984-0.13123 0.14764-0.21325z"/>
   <path d="m128.35 25.54v1.0335c-0.0492 0.86941-0.31168 1.4764-0.90222 1.9521-0.29527 0.24606-0.70537 0.36089-1.2467 0.36089-1.0663 0-1.6076-0.59054-1.8701-1.1811-0.14764-0.34448-0.24606-0.73818-0.26246-1.1811v-4.5111c0.0492-0.86941 0.32808-1.5092 0.91862-2.0013 0.27887-0.24606 0.68897-0.36089 1.2303-0.36089 1.0663 0 1.6076 0.59054 1.8701 1.1647 0.14763 0.34448 0.24606 0.72178 0.26246 1.1483v2.6082h-2.7395v1.9521c0.0164 0.34448 0.11483 0.59054 0.26247 0.77099 0.082 0.08202 0.19684 0.13123 0.34448 0.13123 0.31168 0 0.45931-0.19685 0.52493-0.44291 0.0492-0.13123 0.0656-0.27887 0.0656-0.45931v-0.98424zm-2.7395-2.2638h1.1975v-1.2631c0-0.34448-0.0656-0.59054-0.22965-0.78739-0.082-0.08202-0.21325-0.13123-0.36089-0.13123-0.31168 0-0.44291 0.21325-0.52493 0.45931-0.0492 0.13123-0.0656 0.27887-0.082 0.45931z"/>
  </g>
  <path d="m46.73 34.3v0.44258l-1.0622 0.66386 0.39832-1.0179zm4.9569-0.22129-0.97368 0.35406-0.97368 0.08853 1.372-0.30981zm0.5311 0.13277-0.8409 0.17704v-0.08853l3.0095-1.1065zm5.2667-3.8947-2.2129 1.8588h1.0179l0.79664-1.0179 0.79664 0.04421 0.04426-0.3098 0.39832 0.44258 1.5048-0.57536-5.1339 2.4342 0.5311-0.3098-6.4174 1.6375 0.79664 0.17702-2.0359 0.26556 1.0179-0.44258-0.44258-0.30981-0.44258 0.17704 0.13277 0.3098-0.75239 0.17704-0.22129-0.57535 0.70813-1.0179 1.0179-0.08853v-0.35406l0.13277 0.13277 0.08851-0.57535 0.39832 0.48684 0.17703-0.61961 0.79664 0.04421 0.22129-0.44258 0.44258 0.39833-0.22129-0.39833 1.1064 0.3098 0.61961-0.44258 2.921-0.17702 1.6375-1.3277zm1.4163-1.0179-0.13277-0.08853 0.5311-0.22129-0.30981 0.3098zm-40.142-14.472-0.35406 0.44257-0.26555-0.22128 0.04426-0.48684zm15.579-7.037-0.30981 0.26555 0.39832-0.57535v0.26555zm0.88516-2.3457 0.13277 0.088534-0.5311 0.13277 0.08851-0.13277zm0.92942-0.48684-0.26555 0.22129-0.35406 0.35407-0.088512-0.35407zm6.0633-4.9569h8.409v0.44258l-0.04426 2.6555 0.44258 1.3277-0.22129 1.6375-0.61961 1.4163 0.44258 2.1686-0.3098 1.372 0.08851 0.3098 0.61961-0.39832 0.22129 0.57535 0.13277 6.2846-1.372 5.1782-0.26555 6.3289 0.44258 0.5311-1.4605 0.92941 0.48684 0.79665-1.0179 0.97368 0.08851 0.35406-0.70813 0.08853-0.48684 0.79665 0.75239-2.4342-0.35406-2.3014-0.30981 0.39832 0.44258 2.1244-4.6913-2.8325-0.26555-0.53109-1.4605-0.57535-0.39832-0.84091-0.04426-1.6818-1.0622-0.44257-0.48684-0.97368-25.935-1.0179 0.13278-2.0801 3.7177-2.2129 0.70813-1.0622 0.92942-0.48684-0.22129-1.549 0.3098-0.57535-1.0179-0.44258 0.04426-1.4162 4.0717-0.70813 3.5849 0.53109 0.92942 0.79664 1.2835-0.3098 2.2572 0.48684 0.17703-0.44258 1.2835-0.22129 1.6818-1.4605 0.88516 0.08853 0.48684-0.53109 0.04426-0.57535-0.13277 0.13278-0.44258-1.6375 0.35406-0.39833 0.08851 0.39833 0.92942-1.195-0.8409 0.17703 0.48684-0.57536-0.48684-0.22129-0.5311 0.35407-0.30981-0.75238 2.8768-1.9031 0.88516-1.6375 2.5227-2.1244z" fill="#ccc8c6" stroke-width=".26458"/>
  <g fill="#da8847" stroke-width=".26458" aria-label="New York StateForensic League">
   <path d="m58.25 5.9057-0.14764-0.55774h-0.09842v6.8405h-1.624v-12.057h1.5748l1.7224 6.2827 0.14764 0.55774h0.09842v-6.8405h1.624v12.057h-1.5748z"/>
   <path d="m67.009 8.9733v1.0335c-0.04921 0.86941-0.31168 1.4764-0.90222 1.9521-0.29527 0.24606-0.70537 0.36089-1.2467 0.36089-1.0663 0-1.6076-0.59054-1.8701-1.1811-0.14764-0.34448-0.24606-0.73818-0.26246-1.1811v-4.5111c0.04921-0.86941 0.32808-1.5092 0.91862-2.0013 0.27887-0.24606 0.68897-0.36089 1.2303-0.36089 1.0663 0 1.6076 0.59054 1.8701 1.1647 0.14764 0.34448 0.24606 0.72178 0.26246 1.1483v2.6082h-2.7395v1.9521c0.0164 0.34448 0.11483 0.59054 0.26246 0.77099 0.08202 0.08202 0.19685 0.13123 0.34448 0.13123 0.31168 0 0.45931-0.19685 0.52493-0.44291 0.04921-0.13123 0.06562-0.27887 0.06562-0.45931v-0.98424zm-2.7395-2.2638h1.1975v-1.2631c0-0.34448-0.06562-0.59054-0.22966-0.78739-0.08202-0.08202-0.21325-0.13123-0.36089-0.13123-0.31168 0-0.44291 0.21325-0.52493 0.45931-0.04921 0.13123-0.06562 0.27887-0.08202 0.45931z"/>
   <path d="m71.783 12.188-0.63976-4.2814-0.08202-0.50852h-0.06562l-0.08202 0.50852-0.63976 4.2814h-1.3779l-1.3287-8.973h1.5092l0.52493 4.6915 0.06562 0.50852h0.09842l0.08202-0.50852 0.68897-4.6915h0.98424l0.68897 4.6915 0.08202 0.50852h0.09842l0.06562-0.50852 0.52493-4.6915h1.5092l-1.3287 8.973z"/>
   <path d="m79.919 3.9865 0.04921 0.11483h0.03281l0.04921-0.11483 0.88582-3.8549h1.7388l-1.8044 6.9225v5.1345h-1.7716v-5.1345l-1.8044-6.9225h1.7388z"/>
   <path d="m86.891 10.007c-0.04921 0.86941-0.31168 1.4764-0.88582 1.9521-0.29527 0.24606-0.70537 0.36089-1.2467 0.36089-1.0663 0-1.5912-0.59054-1.8537-1.1811-0.14764-0.34448-0.24606-0.73818-0.26246-1.1811v-4.5111c0.04921-0.86941 0.31168-1.5092 0.88582-2.0013 0.27887-0.24606 0.68897-0.36089 1.2303-0.36089 1.0663 0 1.6076 0.59054 1.8701 1.1647 0.14764 0.34448 0.24606 0.72178 0.26246 1.1483zm-1.5584-4.5603c0.0164-0.34448-0.04921-0.59054-0.21325-0.78739-0.08202-0.08202-0.21325-0.13123-0.36089-0.13123-0.31168 0-0.44291 0.21325-0.50852 0.45931-0.04921 0.13123-0.06562 0.27887-0.04921 0.45931v4.5111c-0.0164 0.34448 0.06562 0.59054 0.21325 0.77099 0.08202 0.08202 0.19685 0.13123 0.34448 0.13123 0.31168 0 0.45931-0.19685 0.52493-0.44291 0.04921-0.13123 0.06562-0.27887 0.04921-0.45931z"/>
   <path d="m91.336 4.9215c-0.14764-0.049212-0.31168-0.065616-0.45931-0.065616-0.26246 0-0.57414 0.032808-0.8366 0.27887-0.31168 0.26246-0.36089 0.54133-0.36089 0.8202v6.2335h-1.6568v-8.973h1.6568v1.0006c0.0164-0.11483 0.13123-0.3937 0.3937-0.65616 0.26246-0.24606 0.65616-0.47572 1.2631-0.47572z"/>
   <path d="m93.715 0.13152v5.725h0.08202l0.09842-0.29527 0.8038-2.3458h1.4928l-1.1975 2.9199 1.5092 6.0531h-1.5912l-0.8202-3.6253-0.03281-0.13123h-0.08202l-0.04921 0.13123-0.21325 0.52493v3.1004h-1.6568v-12.057z"/>
   <path d="m102.66 3.3631c0-0.3937-0.0164-0.8366-0.13123-1.1811-0.11483-0.32808-0.29528-0.55774-0.57414-0.55774-0.45931 0.016404-0.60695 0.49212-0.60695 1.1975 0 0.4101 0.18044 0.8366 0.44291 1.2959 0.26246 0.45931 0.60694 0.93503 0.95143 1.4436 0.4101 0.60695 0.8202 1.2303 1.1319 1.8372 0.31168 0.60695 0.52493 1.2303 0.52493 1.8865 0 0.8038-0.13123 1.5584-0.50852 2.1161s-0.98424 0.91862-1.9521 0.91862c-1.1319 0-1.7716-0.4265-2.1325-1.0827-0.36089-0.65616-0.44291-1.5256-0.44291-2.4278l1.7388-0.16404c0 0.50852 0.0164 1.017 0.14764 1.3943 0.11482 0.3937 0.31167 0.65616 0.68896 0.65616 0.52493 0 0.72178-0.55774 0.72178-1.3287 0-0.3937-0.19685-0.85301-0.45931-1.3287-0.14764-0.22966-0.29528-0.47572-0.45932-0.72178-0.34448-0.49212-0.72177-1.0499-1.1155-1.6568-0.39369-0.60695-0.68896-1.2303-0.86941-1.8701-0.09842-0.31168-0.14764-0.63976-0.14764-0.96784 0-0.65616 0.14764-1.3615 0.52492-1.9029 0.3773-0.52493 0.95144-0.90222 1.788-0.91862 1.0663-0.016404 1.6896 0.4265 2.0341 1.0663 0.34449 0.65616 0.44291 1.46 0.44291 2.1325z"/>
   <path d="m107.35 1.0009v2.2145h1.1319v1.4928h-1.1319v4.4619c0 0.27887 0 0.63976 0.0656 0.93503 0.0656 0.29527 0.19684 0.54133 0.45931 0.54133 0.13123 0 0.29527-0.0164 0.4101-0.03281 0.0656-0.0164 0.13123-0.0164 0.19685-0.03281v1.624c-0.082 0.0164-0.16404 0.04921-0.24606 0.06562-0.16404 0.03281-0.3773 0.04921-0.63976 0.04921-0.96784 0-1.4272-0.49212-1.6568-1.1155-0.22966-0.62335-0.24606-1.3779-0.24606-1.9029v-4.5931h-0.83661v-1.4928h0.83661v-2.2145z"/>
   <path d="m111.84 5.348c0-0.14764 0-0.37729-0.0492-0.54133-0.0656-0.16404-0.19685-0.27887-0.4101-0.27887-0.27887 0-0.39369 0.21325-0.44291 0.47572-0.0164 0.13123-0.0328 0.27887-0.0328 0.4265v0.4265h-1.6568v-0.37729c0-0.65616 0.24606-1.2467 0.63976-1.6896 0.3937-0.44291 0.95143-0.70537 1.5912-0.70537 0.54133 0 1.0334 0.21325 1.4107 0.57414 0.37729 0.36089 0.60695 0.86941 0.60695 1.46v5.5117c0 0.8038 0.0492 1.1647 0.11483 1.5584h-1.624c-0.14764-0.18044-0.14764-0.60695-0.14764-0.72178h-0.11482c-0.082 0.14764-0.22966 0.36089-0.45932 0.54133-0.22965 0.18044-0.54133 0.31168-0.86941 0.31168-0.21325 0-0.55773-0.08202-0.8202-0.4101-0.27886-0.31168-0.50852-0.86941-0.50852-1.8044 0-1.0006 0.29527-1.7224 0.68897-2.2145 0.39369-0.49212 0.88581-0.8038 1.2959-1.017s0.72178-0.36089 0.78739-0.54133zm0 2.5098c-0.80379 0.34448-1.1483 1.1483-1.1483 2.0013 0 0.11483 0.0164 0.31168 0.082 0.49212 0.0656 0.19685 0.18045 0.34448 0.3773 0.34448 0.37729 0 0.68896-0.22966 0.68896-0.54133z"/>
   <path d="m116.52 1.0009v2.2145h1.1319v1.4928h-1.1319v4.4619c0 0.27887 0 0.63976 0.0656 0.93503 0.0656 0.29527 0.19685 0.54133 0.45931 0.54133 0.13123 0 0.29527-0.0164 0.4101-0.03281 0.0656-0.0164 0.13123-0.0164 0.19685-0.03281v1.624c-0.082 0.0164-0.16404 0.04921-0.24606 0.06562-0.16404 0.03281-0.37729 0.04921-0.63976 0.04921-0.96783 0-1.4272-0.49212-1.6568-1.1155-0.22966-0.62335-0.24606-1.3779-0.24606-1.9029v-4.5931h-0.83661v-1.4928h0.83661v-2.2145z"/>
   <path d="m122.68 8.9733v1.0335c-0.0492 0.86941-0.31168 1.4764-0.90222 1.9521-0.29527 0.24606-0.70537 0.36089-1.2467 0.36089-1.0663 0-1.6076-0.59054-1.8701-1.1811-0.14764-0.34448-0.24606-0.73818-0.26246-1.1811v-4.5111c0.0492-0.86941 0.32808-1.5092 0.91862-2.0013 0.27887-0.24606 0.68897-0.36089 1.2303-0.36089 1.0663 0 1.6076 0.59054 1.8701 1.1647 0.14763 0.34448 0.24606 0.72178 0.26246 1.1483v2.6082h-2.7395v1.9521c0.0164 0.34448 0.11483 0.59054 0.26247 0.77099 0.082 0.08202 0.19684 0.13123 0.34448 0.13123 0.31168 0 0.45931-0.19685 0.52493-0.44291 0.0492-0.13123 0.0656-0.27887 0.0656-0.45931v-0.98424zm-2.7395-2.2638h1.1975v-1.2631c0-0.34448-0.0656-0.59054-0.22965-0.78739-0.082-0.08202-0.21325-0.13123-0.36089-0.13123-0.31168 0-0.44291 0.21325-0.52493 0.45931-0.0492 0.13123-0.0656 0.27887-0.082 0.45931z"/>
   <path d="m60.595 17.461h-2.4442v3.166h1.6404v1.8208h-1.6404v5.2493h-1.7716v-12.057h4.2158z"/>
   <path d="m65.254 25.515c-0.04921 0.86941-0.31168 1.4764-0.88582 1.9521-0.29527 0.24606-0.70537 0.36089-1.2467 0.36089-1.0663 0-1.5912-0.59054-1.8537-1.1811-0.14764-0.34448-0.24606-0.73818-0.26246-1.1811v-4.5111c0.04921-0.86941 0.31168-1.5092 0.88582-2.0013 0.27887-0.24606 0.68897-0.36089 1.2303-0.36089 1.0663 0 1.6076 0.59054 1.8701 1.1647 0.14764 0.34448 0.24606 0.72178 0.26246 1.1483zm-1.5584-4.5603c0.0164-0.34448-0.04921-0.59054-0.21325-0.78739-0.08202-0.08202-0.21325-0.13123-0.36089-0.13123-0.31168 0-0.44291 0.21325-0.50852 0.45931-0.04921 0.13123-0.06562 0.27887-0.04921 0.45931v4.5111c-0.0164 0.34448 0.06562 0.59054 0.21325 0.77099 0.08202 0.08202 0.19685 0.13123 0.34448 0.13123 0.31168 0 0.45931-0.19685 0.52493-0.44291 0.04921-0.13123 0.06562-0.27887 0.04921-0.45931z"/>
   <path d="m69.7 20.43c-0.14764-0.04921-0.31168-0.06562-0.45931-0.06562-0.26246 0-0.57414 0.03281-0.8366 0.27887-0.31168 0.26246-0.36089 0.54133-0.36089 0.8202v6.2335h-1.6568v-8.973h1.6568v1.0006c0.0164-0.11483 0.13123-0.3937 0.3937-0.65616 0.26246-0.24606 0.65616-0.47572 1.2631-0.47572z"/>
   <path d="m74.506 24.482v1.0335c-0.04921 0.86941-0.31168 1.4764-0.90222 1.9521-0.29527 0.24606-0.70537 0.36089-1.2467 0.36089-1.0663 0-1.6076-0.59054-1.8701-1.1811-0.14764-0.34448-0.24606-0.73818-0.26246-1.1811v-4.5111c0.04921-0.86941 0.32808-1.5092 0.91862-2.0013 0.27887-0.24606 0.68897-0.36089 1.2303-0.36089 1.0663 0 1.6076 0.59054 1.8701 1.1647 0.14764 0.34448 0.24606 0.72178 0.26246 1.1483v2.6082h-2.7395v1.9521c0.0164 0.34448 0.11483 0.59054 0.26246 0.77099 0.08202 0.08202 0.19685 0.13123 0.34448 0.13123 0.31168 0 0.45931-0.19685 0.52493-0.44291 0.04921-0.13123 0.06562-0.27887 0.06562-0.45931v-0.98424zm-2.7395-2.2638h1.1975v-1.2631c0-0.34448-0.06562-0.59054-0.22966-0.78739-0.08202-0.08202-0.21325-0.13123-0.36089-0.13123-0.31168 0-0.44291 0.21325-0.52493 0.45931-0.04921 0.13123-0.06562 0.27887-0.08202 0.45931z"/>
   <path d="m77.262 27.697h-1.6568v-8.973h1.6568v0.75458c0.03281-0.0164 0.09842-0.08202 0.19685-0.18044 0.18044-0.18044 0.4265-0.4265 0.72178-0.59054 0.14764-0.08202 0.27887-0.11483 0.4265-0.11483 0.44291 0 0.75458 0.26246 0.95143 0.59054 0.19685 0.34448 0.29527 0.78739 0.29527 1.1647v7.349h-1.6568v-7.1029c0-0.34448-0.19685-0.3937-0.3937-0.3937-0.18044 0-0.27887 0.09842-0.3937 0.21325-0.04921 0.06562-0.09842 0.13123-0.14764 0.21325z"/>
   <path d="m83.561 21.021c0-0.21325 0-0.47572-0.06562-0.68897-0.08202-0.19685-0.21325-0.36089-0.47572-0.36089-0.21325 0-0.34448 0.16404-0.4101 0.36089-0.08202 0.19685-0.09842 0.47572-0.09842 0.68897 0 0.27887 0.14764 0.57414 0.36089 0.8366 0.19685 0.26246 0.45931 0.52493 0.72178 0.77099 0.34448 0.34448 0.75458 0.73818 1.0335 1.1811 0.27887 0.45931 0.49212 0.96784 0.49212 1.5584 0 0.57414-0.13123 1.1811-0.45931 1.6404-0.34448 0.47572-0.86941 0.8202-1.6568 0.8202-1.0006 0-1.5912-0.45931-1.9193-1.017s-0.3937-1.2467-0.3937-1.7224h1.542c0 0.24606 0.0164 0.59054 0.13123 0.85301 0.11483 0.27887 0.29527 0.50852 0.63976 0.50852 0.47572 0 0.57414-0.55774 0.57414-1.0827 0-0.54133-0.52493-1.0827-1.0335-1.5912-0.3937-0.37729-0.77099-0.72178-1.0663-1.1647s-0.50852-0.93503-0.50852-1.5912c0-0.52493 0.09842-1.1319 0.4101-1.6076 0.31168-0.45931 0.8202-0.8038 1.6076-0.8202 0.96784-0.0164 1.5092 0.34448 1.788 0.8202s0.32808 1.0991 0.32808 1.6076z"/>
   <path d="m86.104 15.64h1.6568v1.6568h-1.6568zm0 12.057v-8.973h1.6568v8.973z"/>
   <path d="m90.565 25.63c0 0.32808 0.0164 0.72178 0.45931 0.72178 0.37729 0 0.47572-0.18044 0.47572-0.72178v-1.2467h1.6568v0.86941c0 1.0006-0.18044 1.6404-0.54133 2.0341s-0.88582 0.54133-1.5912 0.54133c-0.59054 0-1.1319-0.16404-1.5092-0.57414s-0.60695-1.0827-0.60695-2.0833v-3.9206c0-1.0006 0.22966-1.6732 0.60695-2.0833s0.91862-0.57414 1.5092-0.57414c0.70537 0 1.2303 0.14764 1.5912 0.54133s0.54133 1.0335 0.54133 2.0341v0.70537h-1.6568v-1.0827c0-0.54133-0.09842-0.72178-0.47572-0.72178-0.44291 0-0.45931 0.3937-0.45931 0.72178z"/>
   <path d="m96.733 15.64h1.7716v10.417h2.3458v1.6404h-4.1174z"/>
   <path d="m105.72 24.482v1.0335c-0.0492 0.86941-0.31168 1.4764-0.90222 1.9521-0.29527 0.24606-0.70537 0.36089-1.2467 0.36089-1.0663 0-1.6076-0.59054-1.87-1.1811-0.14764-0.34448-0.24606-0.73818-0.26247-1.1811v-4.5111c0.0492-0.86941 0.32808-1.5092 0.91863-2.0013 0.27887-0.24606 0.68897-0.36089 1.2303-0.36089 1.0663 0 1.6076 0.59054 1.87 1.1647 0.14764 0.34448 0.24606 0.72178 0.26247 1.1483v2.6082h-2.7395v1.9521c0.0164 0.34448 0.11483 0.59054 0.26246 0.77099 0.082 0.08202 0.19685 0.13123 0.34449 0.13123 0.31167 0 0.45931-0.19685 0.52493-0.44291 0.0492-0.13123 0.0656-0.27887 0.0656-0.45931v-0.98424zm-2.7395-2.2638h1.1975v-1.2631c0-0.34448-0.0656-0.59054-0.22965-0.78739-0.082-0.08202-0.21326-0.13123-0.36089-0.13123-0.31168 0-0.44291 0.21325-0.52493 0.45931-0.0492 0.13123-0.0656 0.27887-0.082 0.45931z"/>
   <path d="m109.28 20.857c0-0.14764 0-0.37729-0.0492-0.54133-0.0656-0.16404-0.19684-0.27887-0.4101-0.27887-0.27886 0-0.39369 0.21325-0.4429 0.47572-0.0164 0.13123-0.0328 0.27887-0.0328 0.4265v0.4265h-1.6568v-0.37729c0-0.65616 0.24606-1.2467 0.63976-1.6896s0.95143-0.70537 1.5912-0.70537c0.54133 0 1.0334 0.21325 1.4107 0.57414s0.60695 0.86941 0.60695 1.46v5.5117c0 0.8038 0.0492 1.1647 0.11483 1.5584h-1.624c-0.14763-0.18044-0.14763-0.60695-0.14763-0.72178h-0.11483c-0.082 0.14764-0.22966 0.36089-0.45931 0.54133-0.22966 0.18044-0.54134 0.31168-0.86942 0.31168-0.21325 0-0.55773-0.08202-0.8202-0.4101-0.27886-0.31168-0.50852-0.86941-0.50852-1.8044 0-1.0006 0.29527-1.7224 0.68897-2.2145 0.39369-0.49212 0.88581-0.8038 1.2959-1.017s0.72178-0.36089 0.7874-0.54133zm0 2.5098c-0.8038 0.34448-1.1483 1.1483-1.1483 2.0013 0 0.11483 0.0164 0.31168 0.082 0.49212 0.0656 0.19685 0.18044 0.34448 0.37729 0.34448 0.37729 0 0.68897-0.22966 0.68897-0.54133z"/>
   <path d="m116.12 23.366c-0.0492 0.8366-0.34448 1.4271-0.91862 1.8701-0.29527 0.22966-0.70537 0.34448-1.2139 0.34448h-0.14763c-0.0492 0-0.11483 0-0.16404-0.0164-0.14764 0.13123-0.22966 0.26246-0.22966 0.4101 0 0.19685 0.16404 0.31168 0.4101 0.37729 0.24606 0.08202 0.54133 0.13123 0.85301 0.18044 0.52493 0.06562 1.0827 0.19685 1.542 0.50852 0.4429 0.31168 0.75458 0.78739 0.75458 1.5748 0 0.86941-0.37729 1.46-0.90222 1.8044-0.54133 0.34448-1.2631 0.49212-1.9357 0.49212-0.78739-0.0164-1.46-0.13123-1.9193-0.3937-0.47572-0.26246-0.73818-0.68897-0.73818-1.3451 0-0.31168 0.16404-0.57414 0.4101-0.8038s0.57414-0.4101 0.88582-0.55774c-0.54134-0.14764-1.0006-0.49212-1.0006-1.1975 0-0.26246 0.14764-0.52493 0.34449-0.77099 0.19684-0.24606 0.4429-0.44291 0.68896-0.57414-0.47571-0.31168-0.70537-0.8038-0.8202-1.2139-0.0656-0.24606-0.11482-0.49212-0.13123-0.73818v-2.4442c0.0656-0.8366 0.32808-1.4436 0.90222-1.9193 0.27887-0.24606 0.68897-0.36089 1.1975-0.36089 0.83661 0 1.3451 0.37729 1.6568 0.8202 0.11483-0.11483 0.31167-0.31168 0.57414-0.49212 0.24606-0.18044 0.52493-0.32808 0.78739-0.32808v1.4764c-0.44291 0-0.77099 0.08202-0.96784 0.19685 0.0164 0.08202 0.0328 0.16404 0.0492 0.21325 0 0.06562 0 0.13123 0.0164 0.18044 0.0164 0.04921 0.0164 0.11483 0.0164 0.16404zm-1.624-2.4278c0-0.31168-0.0656-0.50852-0.19685-0.68897-0.0656-0.08202-0.16404-0.13123-0.31168-0.13123-0.26246 0-0.39369 0.21325-0.4429 0.4101-0.0328 0.11483-0.0492 0.26246-0.0328 0.4101v2.4606c-0.0164 0.31168 0.0328 0.50852 0.18044 0.67256 0.0656 0.08202 0.16404 0.13123 0.29527 0.13123 0.27887 0 0.3937-0.19685 0.45932-0.3937 0.0328-0.11483 0.0492-0.26246 0.0492-0.4101zm-0.77099 7.1685c-0.34448 0.19685-0.60695 0.44291-0.60695 0.78739s0.31168 0.62335 1.0827 0.62335c0.27886 0 0.59054-0.04921 0.8366-0.14764 0.24606-0.09842 0.4265-0.24606 0.4265-0.45931 0-0.14764-0.0164-0.26246-0.13123-0.37729-0.13123-0.11483-0.34448-0.19685-0.75458-0.26246z"/>
   <path d="m120.24 18.724h1.6568v8.973h-1.6568v-0.75458c-0.0328 0.0164-0.0984 0.08202-0.18044 0.16404-0.19685 0.19685-0.42651 0.4265-0.72178 0.59054-0.14763 0.08202-0.29527 0.13123-0.44291 0.13123-0.4429 0-0.75458-0.26246-0.95143-0.60695-0.19684-0.32808-0.29527-0.77099-0.29527-1.1483v-7.349h1.6568v7.1029c0 0.34448 0.19685 0.3937 0.3937 0.3937 0.18044 0 0.27887-0.09842 0.3937-0.21325 0.0492-0.04921 0.0984-0.13123 0.14763-0.21325z"/>
   <path d="m127.29 24.482v1.0335c-0.0492 0.86941-0.31168 1.4764-0.90222 1.9521-0.29528 0.24606-0.70538 0.36089-1.2467 0.36089-1.0663 0-1.6076-0.59054-1.87-1.1811-0.14764-0.34448-0.24606-0.73818-0.26247-1.1811v-4.5111c0.0492-0.86941 0.32808-1.5092 0.91863-2.0013 0.27886-0.24606 0.68896-0.36089 1.2303-0.36089 1.0663 0 1.6076 0.59054 1.87 1.1647 0.14764 0.34448 0.24606 0.72178 0.26247 1.1483v2.6082h-2.7395v1.9521c0.0164 0.34448 0.11483 0.59054 0.26246 0.77099 0.082 0.08202 0.19685 0.13123 0.34449 0.13123 0.31167 0 0.45931-0.19685 0.52492-0.44291 0.0492-0.13123 0.0656-0.27887 0.0656-0.45931v-0.98424zm-2.7395-2.2638h1.1975v-1.2631c0-0.34448-0.0656-0.59054-0.22966-0.78739-0.082-0.08202-0.21325-0.13123-0.36088-0.13123-0.31168 0-0.44291 0.21325-0.52493 0.45931-0.0492 0.13123-0.0656 0.27887-0.082 0.45931z"/>
  </g>
 </g>
</svg>
