<?xml version="1.0" encoding="UTF-8" standalone="no"?>
<!-- Created with Inkscape (http://www.inkscape.org/) -->

<svg
   width="115.08005mm"
   height="36.464699mm"
   viewBox="0 0 115.08005 36.464699"
   version="1.1"
   id="svg5"
   inkscape:version="1.1.2 (0a00cf5339, 2022-02-04)"
   sodipodi:docname="nysfl-logo.inkscape.svg"
   xmlns:inkscape="http://www.inkscape.org/namespaces/inkscape"
   xmlns:sodipodi="http://sodipodi.sourceforge.net/DTD/sodipodi-0.dtd"
   xmlns="http://www.w3.org/2000/svg"
   xmlns:svg="http://www.w3.org/2000/svg">
  <sodipodi:namedview
     id="namedview7"
     pagecolor="#ffffff"
     bordercolor="#666666"
     borderopacity="1.0"
     inkscape:pageshadow="2"
     inkscape:pageopacity="0.0"
     inkscape:pagecheckerboard="0"
     inkscape:document-units="mm"
     showgrid="false"
     fit-margin-top="0"
     fit-margin-left="0"
     fit-margin-right="0"
     fit-margin-bottom="0"
     inkscape:zoom="1.2810466"
     inkscape:cx="194.37232"
     inkscape:cy="54.642822"
     inkscape:window-width="1916"
     inkscape:window-height="1035"
     inkscape:window-x="0"
     inkscape:window-y="43"
     inkscape:window-maximized="1"
     inkscape:current-layer="layer1" />
  <defs
     id="defs2" />
  <g
     inkscape:label="Layer 1"
     inkscape:groupmode="layer"
     id="layer1"
     transform="translate(-13.271217)">
    <path
       d="m 47.78858,35.358254 v 0.442581 l -1.06219,0.663862 0.398321,-1.017931 z m 4.956891,-0.221291 -0.973675,0.354058 -0.973675,0.08853 1.371996,-0.309813 z m 0.531095,0.132768 -0.840901,0.177035 v -0.08853 l 3.009541,-1.106455 z m 5.266696,-3.894691 -2.212897,1.858828 h 1.017933 l 0.796643,-1.017932 0.796643,0.04421 0.04426,-0.309803 0.398322,0.442582 1.50477,-0.575361 -5.133922,2.434189 0.531095,-0.309803 -6.417403,1.637548 0.796643,0.177024 -2.035866,0.265558 1.017934,-0.442582 -0.44258,-0.309814 -0.44258,0.177035 0.132774,0.309803 -0.752386,0.177035 -0.22129,-0.57535 0.708128,-1.017931 1.017934,-0.08853 v -0.354059 l 0.132773,0.132768 0.08851,-0.57535 0.398321,0.486838 0.177032,-0.619606 0.796643,0.04421 0.221289,-0.442582 0.44258,0.398326 -0.22129,-0.398326 1.106449,0.309803 0.619612,-0.442582 2.921024,-0.177024 1.637545,-1.327745 z m 1.416255,-1.017942 -0.132774,-0.08853 0.531096,-0.221291 -0.309806,0.309803 z M 19.817555,15.884756 19.46349,16.327327 19.197942,16.106047 19.242202,15.61921 Z M 35.396353,8.8477372 35.086547,9.113284 35.48487,8.5379343 v 0.2655469 z m 0.885159,-2.3456769 0.132774,0.088534 -0.531095,0.132768 0.08851,-0.132768 z M 37.21093,6.0152226 36.945382,6.2365135 36.591319,6.5905832 36.502809,6.2365135 Z m 6.063339,-4.956889 h 8.409011 v 0.4425817 l -0.04426,2.6554794 0.442579,1.3277342 -0.22129,1.6375483 -0.619612,1.4162571 0.44258,2.1686417 -0.309805,1.371991 0.08851,0.309803 0.619612,-0.398315 0.22129,0.575349 0.132773,6.284635 -1.371997,5.178179 -0.265548,6.32888 0.44258,0.531104 -1.460512,0.929409 0.486838,0.796651 -1.017934,0.973676 0.08851,0.354058 -0.708127,0.08853 -0.486838,0.796652 0.752386,-2.434189 -0.354064,-2.30142 -0.309806,0.398325 0.44258,2.124386 -4.691343,-2.832514 -0.265548,-0.531094 -1.460512,-0.57535 L 41.858,27.834415 41.81374,26.152611 40.75155,25.71004 40.264712,24.736365 14.329551,23.718422 l 0.132775,-2.080118 3.717668,-2.212898 0.708127,-1.062187 0.929417,-0.486838 -0.221289,-1.549036 0.309805,-0.57535 -1.017933,-0.442581 0.04426,-1.416247 4.071731,-0.708128 3.584894,0.531094 0.929418,0.79664 1.28348,-0.309803 2.257156,0.486838 0.177032,-0.442582 1.28348,-0.221291 1.681802,-1.460513 0.885159,0.08853 0.486837,-0.531094 0.04426,-0.575349 -0.132773,0.132779 -0.442579,-1.637549 0.354063,-0.3983257 0.08851,0.3983257 0.929416,-1.1949663 -0.840901,0.1770349 0.486838,-0.5753606 -0.486838,-0.2212909 -0.531095,0.3540698 -0.309806,-0.7523846 2.876767,-1.9030951 0.885159,-1.637548 2.522704,-2.1243747 z"
       style="font-size:40.6418px;line-height:0;font-family:StateFace;-inkscape-font-specification:StateFace;letter-spacing:6.09629px;word-spacing:0px;fill:#403f50;fill-opacity:1;stroke-width:0.264583"
       id="path6728" />
    <text
       xml:space="preserve"
       style="font-size:16.4038px;line-height:0.75;font-family:Mandali;-inkscape-font-specification:Mandali;letter-spacing:0px;word-spacing:0px;fill:#403f50;fill-opacity:1;stroke-width:0.264582"
       x="56.781837"
       y="13.246796"
       id="text6734"><tspan
         sodipodi:role="line"
         id="tspan6730"
         style="font-style:normal;font-variant:normal;font-weight:normal;font-stretch:normal;font-family:'League Gothic';-inkscape-font-specification:'League Gothic';fill:#403f50;fill-opacity:1;stroke-width:0.264582"
         x="56.781837"
         y="13.246796">New York State</tspan><tspan
         sodipodi:role="line"
         style="font-style:normal;font-variant:normal;font-weight:normal;font-stretch:normal;font-family:'League Gothic';-inkscape-font-specification:'League Gothic';fill:#403f50;fill-opacity:1;stroke-width:0.264582"
         x="56.781837"
         y="28.755466"
         id="tspan6732">Forensic League</tspan></text>
    <path
       d="m 46.730246,34.29992 v 0.442581 l -1.06219,0.663862 0.398321,-1.017931 z m 4.956891,-0.221291 -0.973675,0.354058 -0.973675,0.08853 1.371996,-0.309813 z m 0.531095,0.132768 -0.840901,0.177035 v -0.08853 l 3.009541,-1.106455 z m 5.266696,-3.894691 -2.212897,1.858828 h 1.017933 l 0.796643,-1.017932 0.796643,0.04421 0.04426,-0.309803 0.398322,0.442582 1.50477,-0.575361 -5.133922,2.434189 0.531095,-0.309803 -6.417403,1.637548 0.796643,0.177024 -2.035866,0.265558 1.017934,-0.442582 -0.44258,-0.309814 -0.44258,0.177035 0.132774,0.309803 -0.752386,0.177035 -0.22129,-0.57535 0.708128,-1.017931 1.017934,-0.08853 v -0.354059 l 0.132773,0.132768 0.08851,-0.57535 0.398321,0.486838 0.177032,-0.619606 0.796643,0.04421 0.221289,-0.442582 0.44258,0.398326 -0.22129,-0.398326 1.106449,0.309803 0.619612,-0.442582 2.921024,-0.177024 1.637545,-1.327745 z m 1.416255,-1.017942 -0.132774,-0.08853 0.531096,-0.221291 -0.309806,0.309803 z m -40.141962,-14.472342 -0.354065,0.442571 -0.265548,-0.22128 0.04426,-0.486837 z M 34.338019,7.7894038 34.028213,8.0549506 34.426536,7.4796009 v 0.2655469 z m 0.885159,-2.3456769 0.132774,0.088534 -0.531095,0.132768 0.08851,-0.132768 z M 36.152596,4.9568892 35.887048,5.1781801 35.532985,5.5322498 35.444473,5.1781801 Z M 42.215935,2.3073855e-7 h 8.409011 V 0.44258194 l -0.04426,2.65547936 0.442579,1.3277342 -0.22129,1.6375483 -0.619612,1.4162571 0.44258,2.1686417 -0.309805,1.3719904 0.08851,0.309803 0.619612,-0.398315 0.22129,0.575349 0.132773,6.284635 -1.371997,5.178179 -0.265548,6.32888 0.44258,0.531104 -1.460512,0.929409 0.486838,0.796651 -1.017934,0.973676 0.08851,0.354058 -0.708127,0.08853 -0.486838,0.796652 0.752386,-2.434189 -0.354064,-2.30142 -0.309806,0.398325 0.44258,2.124386 -4.691343,-2.832514 -0.265548,-0.531094 -1.460512,-0.57535 -0.398322,-0.840907 -0.04426,-1.681804 -1.06219,-0.442571 -0.486838,-0.973675 -25.935161,-1.017943 0.132775,-2.080118 3.717668,-2.212898 0.708127,-1.062187 0.929417,-0.486838 -0.221289,-1.549036 0.309805,-0.57535 -1.017933,-0.442581 0.04426,-1.416247 4.071731,-0.708128 3.584894,0.531094 0.929418,0.79664 1.28348,-0.309803 2.257156,0.486838 0.177032,-0.442582 1.28348,-0.221291 1.681802,-1.460513 0.885159,0.08853 0.486837,-0.531094 0.04426,-0.575349 -0.132773,0.132779 -0.442579,-1.6375484 0.354063,-0.3983257 0.08851,0.3983257 0.929416,-1.1949663 -0.840901,0.1770349 0.486838,-0.5753606 -0.486838,-0.2212909 -0.531095,0.3540698 -0.309806,-0.7523846 2.876767,-1.9030951 0.885159,-1.637548 2.522704,-2.1243747 z"
       style="font-size:40.6418px;line-height:0;font-family:StateFace;-inkscape-font-specification:StateFace;letter-spacing:6.09629px;word-spacing:0px;fill:#ccc8c6;fill-opacity:1;stroke-width:0.264583"
       id="path2330" />
    <text
       xml:space="preserve"
       style="font-size:16.4038px;line-height:0.75;font-family:Mandali;-inkscape-font-specification:Mandali;letter-spacing:0px;word-spacing:0px;fill:#da8847;fill-opacity:1;stroke-width:0.264582"
       x="55.723503"
       y="12.188463"
       id="text2610"><tspan
         sodipodi:role="line"
         id="tspan2608"
         style="font-style:normal;font-variant:normal;font-weight:normal;font-stretch:normal;font-family:'League Gothic';-inkscape-font-specification:'League Gothic';fill:#da8847;fill-opacity:1;stroke-width:0.264582"
         x="55.723503"
         y="12.188463">New York State</tspan><tspan
         sodipodi:role="line"
         style="font-style:normal;font-variant:normal;font-weight:normal;font-stretch:normal;font-family:'League Gothic';-inkscape-font-specification:'League Gothic';fill:#da8847;fill-opacity:1;stroke-width:0.264582"
         x="55.723503"
         y="27.697134"
         id="tspan2612">Forensic League</tspan></text>
  </g>
</svg>
